{
    "asset" : {
        "generator" : "Khronos glTF Blender I/O v1.4.40",
        "version" : "2.0"
    },
    "scene" : 0,
    "scenes" : [
        {
            "name" : "Scene",
            "nodes" : [
                0
            ]
        }
    ],
    "nodes" : [
        {
            "mesh" : 0,
            "name" : "Suzanne"
        }
    ],
    "materials" : [
        {
            "doubleSided" : true,
            "name" : "Plastico",
            "pbrMetallicRoughness" : {
                "baseColorFactor" : [
                    0.8000000715255737,
                    0.03961001709103584,
                    0.007782412692904472,
                    1
                ],
                "metallicFactor" : 0,
                "roughnessFactor" : 0.19341564178466797
            }
        }
    ],
    "meshes" : [
        {
            "name" : "Suzanne.003",
            "primitives" : [
                {
                    "attributes" : {
                        "POSITION" : 0,
                        "NORMAL" : 1,
                        "TEXCOORD_0" : 2
                    },
                    "indices" : 3,
                    "material" : 0
                }
            ]
        }
    ],
    "accessors" : [
        {
            "bufferView" : 0,
            "componentType" : 5126,
            "count" : 2886,
            "max" : [
                1.325934886932373,
                0.9392361640930176,
                0.8223199844360352
            ],
            "min" : [
                -1.325934886932373,
                -0.9704862236976624,
                -0.7782661318778992
            ],
            "type" : "VEC3"
        },
        {
            "bufferView" : 1,
            "componentType" : 5126,
            "count" : 2886,
            "type" : "VEC3"
        },
        {
            "bufferView" : 2,
            "componentType" : 5126,
            "count" : 2886,
            "type" : "VEC2"
        },
        {
            "bufferView" : 3,
            "componentType" : 5123,
            "count" : 11808,
            "type" : "SCALAR"
        }
    ],
    "bufferViews" : [
        {
            "buffer" : 0,
            "byteLength" : 34632,
            "byteOffset" : 0
        },
        {
            "buffer" : 0,
            "byteLength" : 34632,
            "byteOffset" : 34632
        },
        {
            "buffer" : 0,
            "byteLength" : 23088,
            "byteOffset" : 69264
        },
        {
            "buffer" : 0,
            "byteLength" : 23616,
            "byteOffset" : 92352
        }
    ],
    "buffers" : [
        {
            "byteLength" : 115968,
            "uri" : "data:application/octet-stream;base64,"
        }
    ]
}
